<mxfile host="app.diagrams.net" modified="2023-12-12T22:00:03.043Z" agent="Mozilla/5.0 (Windows NT 10.0; Win64; x64) AppleWebKit/537.36 (KHTML, like Gecko) Chrome/118.0.0.0 Safari/537.36" etag="NCIXruLy504YJ54bwt38" version="22.1.8" type="github">
  <diagram id="1cee9afd-dcdd-cf27-cb82-50d77dad4855" name="Page-1">
    <mxGraphModel dx="2187" dy="814" grid="1" gridSize="10" guides="1" tooltips="1" connect="1" arrows="1" fold="1" page="1" pageScale="1" pageWidth="850" pageHeight="1100" math="0" shadow="0">
      <root>
        <mxCell id="0" />
        <mxCell id="1" parent="0" />
        <mxCell id="4ThGJ15uXNUf0RNEpSx--26" value="" style="rounded=0;whiteSpace=wrap;html=1;fillColor=default;" parent="1" vertex="1">
          <mxGeometry x="210" y="120" width="460" height="800" as="geometry" />
        </mxCell>
        <mxCell id="0DiN5XEauW1-vO6qViVb-4" value="&amp;lt;&amp;lt;extends&amp;gt;&amp;gt;" style="rounded=0;orthogonalLoop=1;jettySize=auto;html=1;exitX=1;exitY=0.5;exitDx=0;exitDy=0;entryX=0;entryY=0;entryDx=0;entryDy=0;dashed=1;" edge="1" parent="1" source="c1cb8d76720eaeb-26" target="NXkf0V2V1COPAbD15EZ_-19">
          <mxGeometry relative="1" as="geometry" />
        </mxCell>
        <mxCell id="c1cb8d76720eaeb-26" value="&lt;span style=&quot;font-size: 11px;&quot;&gt;Draft/Review/Submit Recovery Strategies and action plans&lt;/span&gt;" style="ellipse;whiteSpace=wrap;html=1;fillColor=#fff2cc;strokeColor=#d6b656;" parent="1" vertex="1">
          <mxGeometry x="360" y="230" width="120" height="80" as="geometry" />
        </mxCell>
        <mxCell id="4ThGJ15uXNUf0RNEpSx--27" value="Esxternal System Management" style="text;html=1;align=center;verticalAlign=middle;resizable=0;points=[];autosize=1;strokeColor=none;fillColor=none;" parent="1" vertex="1">
          <mxGeometry x="345" y="140" width="190" height="30" as="geometry" />
        </mxCell>
        <mxCell id="0DiN5XEauW1-vO6qViVb-6" style="rounded=0;orthogonalLoop=1;jettySize=auto;html=1;exitX=1;exitY=0.3333333333333333;exitDx=0;exitDy=0;exitPerimeter=0;endArrow=none;endFill=0;" edge="1" parent="1" source="NXkf0V2V1COPAbD15EZ_-11" target="c1cb8d76720eaeb-26">
          <mxGeometry relative="1" as="geometry" />
        </mxCell>
        <mxCell id="0DiN5XEauW1-vO6qViVb-11" style="rounded=0;orthogonalLoop=1;jettySize=auto;html=1;exitX=1;exitY=0.3333333333333333;exitDx=0;exitDy=0;exitPerimeter=0;entryX=0;entryY=0.5;entryDx=0;entryDy=0;endArrow=none;endFill=0;" edge="1" parent="1" source="NXkf0V2V1COPAbD15EZ_-11" target="NXkf0V2V1COPAbD15EZ_-24">
          <mxGeometry relative="1" as="geometry" />
        </mxCell>
        <mxCell id="0DiN5XEauW1-vO6qViVb-15" style="rounded=0;orthogonalLoop=1;jettySize=auto;html=1;exitX=1;exitY=0.3333333333333333;exitDx=0;exitDy=0;exitPerimeter=0;entryX=0;entryY=0.5;entryDx=0;entryDy=0;endArrow=none;endFill=0;" edge="1" parent="1" source="NXkf0V2V1COPAbD15EZ_-11" target="0DiN5XEauW1-vO6qViVb-13">
          <mxGeometry relative="1" as="geometry" />
        </mxCell>
        <mxCell id="0DiN5XEauW1-vO6qViVb-16" style="rounded=0;orthogonalLoop=1;jettySize=auto;html=1;exitX=1;exitY=0.3333333333333333;exitDx=0;exitDy=0;exitPerimeter=0;entryX=0;entryY=0.5;entryDx=0;entryDy=0;endArrow=none;endFill=0;" edge="1" parent="1" source="NXkf0V2V1COPAbD15EZ_-11" target="NXkf0V2V1COPAbD15EZ_-29">
          <mxGeometry relative="1" as="geometry" />
        </mxCell>
        <mxCell id="0DiN5XEauW1-vO6qViVb-17" style="rounded=0;orthogonalLoop=1;jettySize=auto;html=1;exitX=1;exitY=0.3333333333333333;exitDx=0;exitDy=0;exitPerimeter=0;entryX=0;entryY=0.5;entryDx=0;entryDy=0;endArrow=none;endFill=0;" edge="1" parent="1" source="NXkf0V2V1COPAbD15EZ_-11" target="0DiN5XEauW1-vO6qViVb-1">
          <mxGeometry relative="1" as="geometry" />
        </mxCell>
        <mxCell id="NXkf0V2V1COPAbD15EZ_-11" value="ECCC Minster" style="shape=umlActor;verticalLabelPosition=bottom;labelBackgroundColor=#ffffff;verticalAlign=top;html=1;strokeWidth=4;fillColor=#030203;strokeColor=#000000;fontColor=#000099;" parent="1" vertex="1">
          <mxGeometry x="30" y="420" width="30" height="60" as="geometry" />
        </mxCell>
        <mxCell id="0DiN5XEauW1-vO6qViVb-7" style="rounded=0;orthogonalLoop=1;jettySize=auto;html=1;exitX=1;exitY=0.3333333333333333;exitDx=0;exitDy=0;exitPerimeter=0;entryX=0;entryY=0.5;entryDx=0;entryDy=0;endArrow=none;endFill=0;" edge="1" parent="1" source="NXkf0V2V1COPAbD15EZ_-13" target="c1cb8d76720eaeb-26">
          <mxGeometry relative="1" as="geometry" />
        </mxCell>
        <mxCell id="0DiN5XEauW1-vO6qViVb-18" style="rounded=0;orthogonalLoop=1;jettySize=auto;html=1;exitX=1;exitY=0.3333333333333333;exitDx=0;exitDy=0;exitPerimeter=0;entryX=0;entryY=0.5;entryDx=0;entryDy=0;endArrow=none;endFill=0;" edge="1" parent="1" source="NXkf0V2V1COPAbD15EZ_-13" target="NXkf0V2V1COPAbD15EZ_-24">
          <mxGeometry relative="1" as="geometry" />
        </mxCell>
        <mxCell id="0DiN5XEauW1-vO6qViVb-19" style="rounded=0;orthogonalLoop=1;jettySize=auto;html=1;exitX=1;exitY=0.3333333333333333;exitDx=0;exitDy=0;exitPerimeter=0;entryX=0;entryY=0.5;entryDx=0;entryDy=0;endArrow=none;endFill=0;" edge="1" parent="1" source="NXkf0V2V1COPAbD15EZ_-13" target="0DiN5XEauW1-vO6qViVb-13">
          <mxGeometry relative="1" as="geometry" />
        </mxCell>
        <mxCell id="0DiN5XEauW1-vO6qViVb-20" style="rounded=0;orthogonalLoop=1;jettySize=auto;html=1;exitX=1;exitY=0.3333333333333333;exitDx=0;exitDy=0;exitPerimeter=0;entryX=0;entryY=0.5;entryDx=0;entryDy=0;endArrow=none;endFill=0;" edge="1" parent="1" source="NXkf0V2V1COPAbD15EZ_-13" target="NXkf0V2V1COPAbD15EZ_-29">
          <mxGeometry relative="1" as="geometry" />
        </mxCell>
        <mxCell id="0DiN5XEauW1-vO6qViVb-21" style="rounded=0;orthogonalLoop=1;jettySize=auto;html=1;exitX=1;exitY=0.3333333333333333;exitDx=0;exitDy=0;exitPerimeter=0;entryX=0;entryY=0.5;entryDx=0;entryDy=0;endArrow=none;endFill=0;" edge="1" parent="1" source="NXkf0V2V1COPAbD15EZ_-13" target="0DiN5XEauW1-vO6qViVb-1">
          <mxGeometry relative="1" as="geometry" />
        </mxCell>
        <mxCell id="NXkf0V2V1COPAbD15EZ_-13" value="ECCC Policy Analysts" style="shape=umlActor;verticalLabelPosition=bottom;labelBackgroundColor=#ffffff;verticalAlign=top;html=1;strokeWidth=4;fillColor=#030203;strokeColor=#000000;fontColor=#000099;" parent="1" vertex="1">
          <mxGeometry x="40" y="630" width="30" height="60" as="geometry" />
        </mxCell>
        <mxCell id="0DiN5XEauW1-vO6qViVb-9" style="rounded=0;orthogonalLoop=1;jettySize=auto;html=1;exitX=0;exitY=0.3333333333333333;exitDx=0;exitDy=0;exitPerimeter=0;endArrow=none;endFill=0;" edge="1" parent="1" source="NXkf0V2V1COPAbD15EZ_-17" target="NXkf0V2V1COPAbD15EZ_-26">
          <mxGeometry relative="1" as="geometry" />
        </mxCell>
        <mxCell id="NXkf0V2V1COPAbD15EZ_-17" value="Public Registry Users" style="shape=umlActor;verticalLabelPosition=bottom;labelBackgroundColor=#ffffff;verticalAlign=top;html=1;strokeWidth=4;fillColor=#030203;strokeColor=#000000;fontColor=#000099;" parent="1" vertex="1">
          <mxGeometry x="780" y="480" width="30" height="60" as="geometry" />
        </mxCell>
        <mxCell id="NXkf0V2V1COPAbD15EZ_-19" value="Consult with Stakeholders" style="ellipse;whiteSpace=wrap;html=1;fillColor=#fff2cc;strokeColor=#d6b656;" parent="1" vertex="1">
          <mxGeometry x="520" y="300" width="120" height="80" as="geometry" />
        </mxCell>
        <mxCell id="NXkf0V2V1COPAbD15EZ_-24" value="Publish to public registry" style="ellipse;whiteSpace=wrap;html=1;fillColor=#fff2cc;strokeColor=#d6b656;" parent="1" vertex="1">
          <mxGeometry x="360" y="360" width="120" height="80" as="geometry" />
        </mxCell>
        <mxCell id="NXkf0V2V1COPAbD15EZ_-26" value="Manage comments on Recovery Strategies from public registry" style="ellipse;whiteSpace=wrap;html=1;fillColor=#fff2cc;strokeColor=#d6b656;" parent="1" vertex="1">
          <mxGeometry x="360" y="520" width="120" height="80" as="geometry" />
        </mxCell>
        <mxCell id="0DiN5XEauW1-vO6qViVb-3" value="&amp;lt;&amp;lt;include&amp;gt;&amp;gt;" style="rounded=0;orthogonalLoop=1;jettySize=auto;html=1;exitX=0;exitY=0;exitDx=0;exitDy=0;entryX=1;entryY=0.5;entryDx=0;entryDy=0;dashed=1;" edge="1" parent="1" source="NXkf0V2V1COPAbD15EZ_-28" target="NXkf0V2V1COPAbD15EZ_-24">
          <mxGeometry relative="1" as="geometry" />
        </mxCell>
        <mxCell id="NXkf0V2V1COPAbD15EZ_-28" value="Manage version history" style="ellipse;whiteSpace=wrap;html=1;fillColor=#fff2cc;strokeColor=#d6b656;" parent="1" vertex="1">
          <mxGeometry x="510" y="440" width="120" height="80" as="geometry" />
        </mxCell>
        <mxCell id="NXkf0V2V1COPAbD15EZ_-29" value="Publish Action plans" style="ellipse;whiteSpace=wrap;html=1;fillColor=#fff2cc;strokeColor=#d6b656;" parent="1" vertex="1">
          <mxGeometry x="365" y="690" width="120" height="80" as="geometry" />
        </mxCell>
        <mxCell id="Qu8sucnWAvdfmmjdlGFY-18" style="edgeStyle=orthogonalEdgeStyle;rounded=0;orthogonalLoop=1;jettySize=auto;html=1;exitX=0.5;exitY=1;exitDx=0;exitDy=0;" parent="1" source="4ThGJ15uXNUf0RNEpSx--26" target="4ThGJ15uXNUf0RNEpSx--26" edge="1">
          <mxGeometry relative="1" as="geometry" />
        </mxCell>
        <mxCell id="0DiN5XEauW1-vO6qViVb-1" value="Publish Monitoring and Reporting Documents" style="ellipse;whiteSpace=wrap;html=1;fillColor=#fff2cc;strokeColor=#d6b656;" vertex="1" parent="1">
          <mxGeometry x="365" y="770" width="120" height="80" as="geometry" />
        </mxCell>
        <mxCell id="0DiN5XEauW1-vO6qViVb-8" style="rounded=0;orthogonalLoop=1;jettySize=auto;html=1;exitX=0;exitY=0.3333333333333333;exitDx=0;exitDy=0;exitPerimeter=0;entryX=0.992;entryY=0.425;entryDx=0;entryDy=0;entryPerimeter=0;endArrow=none;endFill=0;" edge="1" parent="1" source="NXkf0V2V1COPAbD15EZ_-17" target="NXkf0V2V1COPAbD15EZ_-24">
          <mxGeometry relative="1" as="geometry" />
        </mxCell>
        <mxCell id="0DiN5XEauW1-vO6qViVb-13" value="Publish Reports on Recovery Strategies" style="ellipse;whiteSpace=wrap;html=1;fillColor=#fff2cc;strokeColor=#d6b656;" vertex="1" parent="1">
          <mxGeometry x="365" y="610" width="120" height="80" as="geometry" />
        </mxCell>
      </root>
    </mxGraphModel>
  </diagram>
</mxfile>
